# xmcd
#
# Track frame offsets:
#	150
#	16934
#	35542
#	55825
#	73295
#
# Disc length: 1198 seconds
#
# Revision: 1
# Processed by: cddbd v1.5.2PL0 Copyright (c) Steve Scherf et al.
# Submitted via: audiograbber 1.83.01
#
DISCID=3f04ac05
DTITLE=Jimmy Cornett - Jimmy Cornett - California Session
DYEAR=2011
DGENRE=Blues-Rock
TTITLE0=Just One Kiss
TTITLE1=Day By Day
TTITLE2=Save It For A Rainy Day
TTITLE3=Howlin' For You
TTITLE4=Train To Nowhere
EXTD=All Songs written by Jimmy Cornett except Track 3\nTrack 3 - written by Ga
EXTD=ry M. Kouris - Warner-Tamerlane 2003
EXTT0=Produced by Keaton Simons
EXTT1=Produced by Keaton Simons
EXTT2=Produced by Keaton Simons
EXTT3=Produced by Jimmy Cornett
EXTT4=Produced by Jimmy Cornett
PLAYORDER=
